name GIL02_fast3EmgEnv.mot
datacolumns 51
datarows 10
range 0.53425920 0.54259259
endheader
                time	   rect_fem_l_emgRec	   rect_fem_l_emgEnv	   rect_fem_l_emgAve	   rect_fem_l_emgSDp	   rect_fem_l_emgSDm	   rect_fem_r_emgRec	   rect_fem_r_emgEnv	   rect_fem_r_emgAve	   rect_fem_r_emgSDp	   rect_fem_r_emgSDm	   med_hams_l_emgRec	   med_hams_l_emgEnv	   med_hams_l_emgAve	   med_hams_l_emgSDp	   med_hams_l_emgSDm	   med_hams_r_emgRec	   med_hams_r_emgEnv	   med_hams_r_emgAve	   med_hams_r_emgSDp	   med_hams_r_emgSDm	   lat_hams_l_emgRec	   lat_hams_l_emgEnv	   lat_hams_l_emgAve	   lat_hams_l_emgSDp	   lat_hams_l_emgSDm	   lat_hams_r_emgRec	   lat_hams_r_emgEnv	   lat_hams_r_emgAve	   lat_hams_r_emgSDp	   lat_hams_r_emgSDm	    tib_ant_l_emgRec	    tib_ant_l_emgEnv	    tib_ant_l_emgAve	    tib_ant_l_emgSDp	    tib_ant_l_emgSDm	    tib_ant_r_emgRec	    tib_ant_r_emgEnv	    tib_ant_r_emgAve	    tib_ant_r_emgSDp	    tib_ant_r_emgSDm	    gas_sol_l_emgRec	    gas_sol_l_emgEnv	    gas_sol_l_emgAve	    gas_sol_l_emgSDp	    gas_sol_l_emgSDm	    gas_sol_r_emgRec	    gas_sol_r_emgEnv	    gas_sol_r_emgAve	    gas_sol_r_emgSDp	    gas_sol_r_emgSDm	
          0.53425920	          0.10601909	          0.57968599	          0.60644680	          0.83177601	          0.38111760	          0.00349252	          0.04366253	          0.18792222	          0.32819368	          0.04765077	          0.00697303	          0.00684809	          0.14014839	          0.23584516	          0.04445161	          0.00327195	          0.02489656	          0.04793607	          0.06020064	          0.03567150	          0.08409106	          0.41495681	          0.55364943	          0.66966583	          0.43763302	          0.04753061	          0.07200380	          0.13693418	          0.22314958	          0.05071877	          0.04633969	          0.82645793	          0.39618096	          0.64387248	          0.14848943	          0.07500690	          0.24179366	          0.18473746	          0.27277683	          0.09669809	          0.00571927	          0.07772195	          0.14500369	          0.21463560	          0.07537178	          0.01169639	          0.04199717	          0.00232006	          0.01862689	         -0.01398676	
          0.53518516	          0.12346833	          0.57555411	          0.60365033	          0.82851662	          0.37878405	          0.01403199	          0.04561994	          0.18675022	          0.32666667	          0.04683377	          0.00299141	          0.00684146	          0.14006633	          0.23563043	          0.04450222	          0.00445110	          0.02421788	          0.04693708	          0.05845236	          0.03542181	          0.04672925	          0.40635045	          0.54981452	          0.66653126	          0.43309779	          0.00821598	          0.07045486	          0.13439485	          0.21813685	          0.05065285	          0.06712260	          0.82592898	          0.39459872	          0.64191230	          0.14728515	          0.17767758	          0.25047772	          0.18655789	          0.27669110	          0.09642468	          0.01603883	          0.08054616	          0.14586350	          0.21565875	          0.07606825	          0.02166629	          0.04117170	          0.00088316	          0.01671406	         -0.01494773	
          0.53611112	          0.10584050	          0.57138838	          0.60079384	          0.82517457	          0.37641311	          0.02195289	          0.04785897	          0.18567885	          0.32533085	          0.04602686	          0.00410442	          0.00693818	          0.13997467	          0.23539370	          0.04455564	          0.00494591	          0.02357859	          0.04596381	          0.05674903	          0.03517859	          0.02823359	          0.39805408	          0.54598135	          0.66340195	          0.42856075	          0.01105240	          0.06900010	          0.13193573	          0.21325539	          0.05061607	          0.13575157	          0.82507780	          0.39301986	          0.63994192	          0.14609779	          0.40261783	          0.25922893	          0.18854766	          0.28086615	          0.09622917	          0.01707230	          0.08345590	          0.14670680	          0.21666104	          0.07675257	          0.04015487	          0.04036715	         -0.00042940	          0.01495817	         -0.01581697	
          0.53703701	          0.06938172	          0.56719006	          0.59787810	          0.82175073	          0.37400547	          0.02034771	          0.05038173	          0.18470730	          0.32418431	          0.04523028	          0.00393348	          0.00713624	          0.13987291	          0.23513427	          0.04461154	          0.00181124	          0.02297821	          0.04501646	          0.05509129	          0.03494162	          0.02004828	          0.39008243	          0.54215121	          0.66027893	          0.42402349	          0.05163983	          0.06763731	          0.12955685	          0.20850597	          0.05060773	          0.15505767	          0.82390650	          0.39144492	          0.63796194	          0.14492790	          0.38409564	          0.26804302	          0.19070561	          0.28529863	          0.09611259	          0.01605684	          0.08644822	          0.14753310	          0.21764168	          0.07742453	          0.04478934	          0.03958309	         -0.00161872	          0.01335790	         -0.01659535	
          0.53796291	          0.05448266	          0.56296020	          0.59490353	          0.81824557	          0.37156148	          0.02922697	          0.05318977	          0.18383433	          0.32322459	          0.04444407	          0.00295323	          0.00743365	          0.13976069	          0.23485175	          0.04466963	          0.00187500	          0.02241619	          0.04409511	          0.05347953	          0.03471070	          0.00796485	          0.38244932	          0.53832483	          0.65716268	          0.41948698	          0.05888622	          0.06636427	          0.12725790	          0.20388862	          0.05062717	          0.13183424	          0.82241736	          0.38987422	          0.63597266	          0.14377578	          0.20726317	          0.27691611	          0.19303060	          0.28998545	          0.09607574	          0.02587207	          0.08952021	          0.14834194	          0.21860002	          0.07808386	          0.03930373	          0.03881920	         -0.00268620	          0.01191158	         -0.01728398	
          0.53888887	          0.03974773	          0.55869964	          0.59187025	          0.81465912	          0.36908138	          0.03983158	          0.05628413	          0.18305871	          0.32244907	          0.04366834	          0.00207194	          0.00782840	          0.13963756	          0.23454550	          0.04472962	          0.00774343	          0.02189191	          0.04319983	          0.05191412	          0.03448554	          0.00024141	          0.37516761	          0.53450298	          0.65405385	          0.41495211	          0.00636457	          0.06517878	          0.12503850	          0.19940328	          0.05067373	          0.00461592	          0.82061285	          0.38830805	          0.63397430	          0.14264180	          0.00315302	          0.28584471	          0.19552147	          0.29492337	          0.09611958	          0.03017126	          0.09266905	          0.14913298	          0.21953551	          0.07873045	          0.03748447	          0.03807523	         -0.00363327	          0.01061743	         -0.01788396	
          0.53981483	          0.01052849	          0.55440899	          0.58877897	          0.81099229	          0.36656566	          0.03379695	          0.05966531	          0.18237910	          0.32185507	          0.04290313	          0.00452055	          0.00831848	          0.13950315	          0.23421506	          0.04479124	          0.01146230	          0.02140470	          0.04233078	          0.05039560	          0.03426595	          0.01095229	          0.36824918	          0.53068691	          0.65095330	          0.41042053	          0.01678700	          0.06407864	          0.12289850	          0.19505037	          0.05074662	          0.16040553	          0.81849563	          0.38674697	          0.63196751	          0.14152643	          0.09585506	          0.29482569	          0.19817664	          0.30010821	          0.09624507	          0.02648905	          0.09589193	          0.14990570	          0.22044741	          0.07936399	          0.02574070	          0.03735102	         -0.00446134	          0.00947375	         -0.01839642	
          0.54074073	          0.05142440	          0.55008869	          0.58563030	          0.80724572	          0.36401488	          0.02481295	          0.06333323	          0.18179414	          0.32143961	          0.04214866	          0.00144622	          0.00890185	          0.13935709	          0.23385997	          0.04485421	          0.00886624	          0.02095382	          0.04148811	          0.04892453	          0.03405170	          0.02594214	          0.36170491	          0.52687782	          0.64786199	          0.40589365	          0.04435604	          0.06306165	          0.12083763	          0.19083015	          0.05084511	          0.33221318	          0.81606851	          0.38519138	          0.62995267	          0.14043009	          0.11072345	          0.30385628	          0.20099430	          0.30553557	          0.09645303	          0.01163305	          0.09918613	          0.15065965	          0.22133502	          0.07998428	          0.00892778	          0.03664649	         -0.00517197	          0.00847862	         -0.01882256	
          0.54166663	          0.03035941	          0.54573897	          0.58242476	          0.80341992	          0.36142960	          0.02096571	          0.06728728	          0.18130219	          0.32119936	          0.04140502	          0.00268473	          0.00957650	          0.13919897	          0.23347978	          0.04491817	          0.00760772	          0.02053849	          0.04067190	          0.04750123	          0.03384258	          0.00144887	          0.35554466	          0.52307647	          0.64478044	          0.40137251	          0.01976520	          0.06212563	          0.11885539	          0.18674228	          0.05096851	          0.46833664	          0.81333449	          0.38364160	          0.62793009	          0.13935311	          0.13508887	          0.31293403	          0.20397286	          0.31120134	          0.09674438	          0.03422549	          0.10254895	          0.15139455	          0.22219789	          0.08059120	          0.00257312	          0.03596162	         -0.00576693	          0.00762988	         -0.01916373	
          0.54259259	          0.02615975	          0.54135989	          0.57916230	          0.79951495	          0.35880965	          0.01982840	          0.07152629	          0.18090157	          0.32113095	          0.04067220	          0.00560706	          0.01034039	          0.13902847	          0.23307400	          0.04498295	          0.01052471	          0.02015787	          0.03988216	          0.04612599	          0.03363832	          0.03409022	          0.34977724	          0.51928335	          0.64170900	          0.39685771	         -0.00029069	          0.06126843	          0.11695114	          0.18278628	          0.05111600	          0.18387024	          0.81029672	          0.38209799	          0.62590013	          0.13829584	          0.17676651	          0.32205679	          0.20711069	          0.31710128	          0.09712010	          0.10851550	          0.10597771	          0.15211000	          0.22303542	          0.08118457	          0.00530551	          0.03529648	         -0.00624804	          0.00692527	         -0.01942134	
